<?xml version="1.0" encoding="iso-8859-1"?>
<!-- Generator: Adobe Illustrator 19.0.0, SVG Export Plug-In . SVG Version: 6.00 Build 0)  -->
<svg version="1.1" id="Layer_1" xmlns="http://www.w3.org/2000/svg" xmlns:xlink="http://www.w3.org/1999/xlink" x="0px" y="0px"
	 viewBox="0 0 512 512" style="enable-background:new 0 0 512 512;" xml:space="preserve">
<path style="fill:#709E21;" d="M511.344,274.266C511.77,268.231,512,262.143,512,256C512,114.615,397.385,0,256,0S0,114.615,0,256
	c0,117.769,79.53,216.949,187.809,246.801L511.344,274.266z"/>
<path style="fill:#557919;" d="M511.344,274.266L314.991,77.913L119.096,434.087l68.714,68.714C209.522,508.787,232.385,512,256,512
	C391.243,512,501.976,407.125,511.344,274.266z"/>
<polygon style="fill:#FFFFFF;" points="278.328,333.913 255.711,77.913 119.096,77.913 119.096,311.652 "/>
<polygon style="fill:#E8E6E6;" points="392.904,311.652 392.904,155.826 337.252,133.565 314.991,77.913 255.711,77.913 
	256.067,333.913 "/>
<polygon style="fill:#FFFFFF;" points="314.991,155.826 314.991,77.913 392.904,155.826 "/>
<rect x="119.096" y="311.652" style="fill:#89C429;" width="273.809" height="122.435"/>
<g>
	<path style="fill:#FFFFFF;" d="M192.571,382.485h-28.683c1.287,4.844,4.768,7.569,9.611,7.569c3.557,0,7.039-1.438,9.762-4.162
		l6.888,6.735c-4.162,4.541-10.292,7.19-17.785,7.19c-13.32,0-21.644-8.324-21.644-20.736c0-12.639,8.627-20.963,21.266-20.963
		C186.366,358.117,193.479,367.576,192.571,382.485z M180.008,375.447c0-4.995-3.179-8.25-7.87-8.25c-4.541,0-7.644,3.33-8.476,8.25
		H180.008z"/>
	<path style="fill:#FFFFFF;" d="M224.739,346.387c13.546,0,21.341,6.658,21.341,18.465c0,12.41-7.795,19.601-21.341,19.601h-9.611
		v14.909h-13.471v-52.975L224.739,346.387L224.739,346.387z M215.127,373.859h8.93c5.902,0,9.308-2.952,9.308-8.553
		c0-5.525-3.406-8.324-9.308-8.324h-8.93V373.859z"/>
	<path style="fill:#FFFFFF;" d="M302.692,377.112c0,14.001-9.308,22.855-24.142,22.855c-14.909,0-24.444-8.854-24.444-22.855
		v-30.724h13.471v30.724c0,7.19,4.616,11.579,11.049,11.579c6.358,0,10.672-4.389,10.672-11.579v-30.724h13.394v30.724H302.692z"/>
	<path style="fill:#FFFFFF;" d="M339.327,346.387c11.882,0,19.45,5.146,19.45,13.243c0,5.6-3.482,10.065-9.081,11.655
		c6.659,1.287,10.898,6.509,10.898,13.395c0,9.006-7.87,14.681-20.359,14.681h-25.957v-52.975h25.049V346.387z M327.673,367.576
		h10.898c3.936,0,6.432-2.118,6.432-5.524s-2.497-5.374-6.432-5.374h-10.898L327.673,367.576L327.673,367.576z M327.673,388.993
		h10.898c4.994,0,8.097-2.195,8.097-5.978c0-3.556-3.103-5.752-8.097-5.752h-10.898L327.673,388.993L327.673,388.993z"/>
</g>
<g>
</g>
<g>
</g>
<g>
</g>
<g>
</g>
<g>
</g>
<g>
</g>
<g>
</g>
<g>
</g>
<g>
</g>
<g>
</g>
<g>
</g>
<g>
</g>
<g>
</g>
<g>
</g>
<g>
</g>
</svg>
