<?xml version="1.0" encoding="UTF-8" standalone="no"?>
<svg
   xmlns:dc="http://purl.org/dc/elements/1.1/"
   xmlns:cc="http://creativecommons.org/ns#"
   xmlns:rdf="http://www.w3.org/1999/02/22-rdf-syntax-ns#"
   xmlns:svg="http://www.w3.org/2000/svg"
   xmlns="http://www.w3.org/2000/svg"
   xmlns:sodipodi="http://sodipodi.sourceforge.net/DTD/sodipodi-0.dtd"
   xmlns:inkscape="http://www.inkscape.org/namespaces/inkscape"
   clip-rule="evenodd"
   fill-rule="evenodd"
   stroke-linejoin="round"
   stroke-miterlimit="2"
   viewBox="0 0 48 48"
   version="1.1"
   id="svg20"
   sodipodi:docname="whatsapp.svg"
   inkscape:version="0.92.5 (2060ec1f9f, 2020-04-08)">
  <metadata
     id="metadata26">
    <rdf:RDF>
      <cc:Work
         rdf:about="">
        <dc:format>image/svg+xml</dc:format>
        <dc:type
           rdf:resource="http://purl.org/dc/dcmitype/StillImage" />
      </cc:Work>
    </rdf:RDF>
  </metadata>
  <defs
     id="defs24" />
  <sodipodi:namedview
     pagecolor="#ffffff"
     bordercolor="#666666"
     borderopacity="1"
     objecttolerance="10"
     gridtolerance="10"
     guidetolerance="10"
     inkscape:pageopacity="0"
     inkscape:pageshadow="2"
     inkscape:window-width="1366"
     inkscape:window-height="714"
     id="namedview22"
     showgrid="false"
     inkscape:zoom="9.5452474"
     inkscape:cx="6.2948539"
     inkscape:cy="24"
     inkscape:window-x="0"
     inkscape:window-y="28"
     inkscape:window-maximized="1"
     inkscape:current-layer="svg20" />
  <linearGradient
     id="a"
     x2="1"
     gradientTransform="matrix(0,-43.729456,45.138608,0,23.957445,45.830643)"
     gradientUnits="userSpaceOnUse">
    <stop
       stop-color="#008817"
       offset="0"
       id="stop2" />
    <stop
       stop-color="#3ed657"
       offset="1"
       id="stop4" />
  </linearGradient>
  <linearGradient
     id="b"
     x2="1"
     gradientTransform="matrix(.0101761 .671624 -.671624 .0101761 .075921 .564376)"
     gradientUnits="userSpaceOnUse">
    <stop
       stop-color="#ececec"
       offset="0"
       id="stop7" />
    <stop
       stop-color="#fff"
       offset="1"
       id="stop9" />
  </linearGradient>
  <g
     fill-rule="nonzero"
     id="g18">
    <path
       d="m 23.957981,0.97065216 c 12.983552,-0.0228412 23.514,10.17886484 23.490423,22.75709284 0.02358,12.579266 -10.506871,22.780971 -23.490423,22.75813 -4.367146,0.01039 -8.6507,-1.160747 -12.367329,-3.380496 L 1.98293,45.016771 4.5785687,36.628864 C 1.8886211,32.832035 0.45469681,28.332321 0.46648541,23.727745 0.44290821,11.149517 10.973357,0.94781094 23.957981,0.97065216 Z"
       id="path12"
       style="fill:url(#a);stroke-width:1.05483139"
       inkscape:connector-curvature="0" />
    <path
       d="m34.868 28.854c-.132-.224-.488-.356-1.028-.621-1.214-.607-2.443-1.187-3.683-1.74-.489-.183-.855-.264-1.222.265-.535.723-1.102 1.422-1.699 2.096-.305.356-.631.407-1.17.132-.529-.264-2.27-.824-4.325-2.645-1.179-1.08-2.191-2.328-3.002-3.705-.305-.539-.031-.824.234-1.088.244-.245.539-.631.814-.937.265-.305.356-.539.539-.895.173-.356.092-.672-.05-.936-.133-.265-1.211-2.901-1.659-3.969-.875-1.526-2.738-.997-3.684-.265-.57.448-1.883 1.832-1.883 4.458 0 2.625 1.934 5.169 2.199 5.525.274.356 3.724 5.933 9.209 8.07 2.992 1.363 8.528 2.605 10.105-1.201.448-1.252.448-2.32.305-2.544z"
       fill="#f2f2f2"
       id="path16" />
  </g>
</svg>
