<?xml version="1.0" encoding="iso-8859-1"?>
<!-- Generator: Adobe Illustrator 19.0.0, SVG Export Plug-In . SVG Version: 6.00 Build 0)  -->
<svg version="1.1" id="Layer_1" xmlns="http://www.w3.org/2000/svg" xmlns:xlink="http://www.w3.org/1999/xlink" x="0px" y="0px"
	 viewBox="0 0 512 512" style="enable-background:new 0 0 512 512;" xml:space="preserve">
<path style="fill:#00477D;" d="M511.344,274.266C511.77,268.231,512,262.143,512,256C512,114.615,397.385,0,256,0S0,114.615,0,256
	c0,117.769,79.53,216.949,187.809,246.801L511.344,274.266z"/>
<path style="fill:#000036;" d="M511.344,274.266L314.991,77.913L119.096,434.087l68.714,68.714C209.522,508.787,232.385,512,256,512
	C391.243,512,501.976,407.125,511.344,274.266z"/>
<polygon style="fill:#FFFFFF;" points="278.328,333.913 255.711,77.913 119.096,77.913 119.096,311.652 "/>
<polygon style="fill:#E8E6E6;" points="392.904,311.652 392.904,155.826 337.252,133.565 314.991,77.913 255.711,77.913 
	256.067,333.913 "/>
<polygon style="fill:#FFFFFF;" points="314.991,155.826 314.991,77.913 392.904,155.826 "/>
<rect x="119.096" y="311.652" style="fill:#3CA8FA;" width="273.809" height="122.435"/>
<g>
	<path style="fill:#FFFFFF;" d="M203.357,346.387c13.547,0,21.341,6.659,21.341,18.465c0,12.412-7.795,19.601-21.341,19.601h-9.611
		v14.909h-13.471v-52.975L203.357,346.387L203.357,346.387z M193.746,373.858h8.93c5.904,0,9.308-2.952,9.308-8.552
		c0-5.525-3.406-8.324-9.308-8.324h-8.93V373.858z"/>
	<path style="fill:#FFFFFF;" d="M274.879,351.684l-5.071,10.519c-5.601-3.255-12.639-5.524-16.952-5.524
		c-3.48,0-5.827,1.287-5.827,3.86c0,9.157,28.001,3.936,28.001,23.082c0,10.595-9.384,16.196-21.19,16.196
		c-8.854,0-17.936-3.33-24.218-8.476l5.222-10.368c5.449,4.768,13.621,7.947,19.147,7.947c4.238,0,6.887-1.589,6.887-4.617
		c0-9.384-28.002-3.783-28.002-22.552c0-9.763,8.4-15.969,21.114-15.969C261.635,345.781,269.431,348.128,274.879,351.684z"/>
	<path style="fill:#FFFFFF;" d="M307.049,346.387c16.649,0,28.152,10.746,28.152,26.487c0,15.666-11.655,26.488-28.683,26.488
		h-22.25v-52.975H307.049z M297.739,388.615h9.611c8.249,0,14.152-6.357,14.152-15.665c0-9.384-6.206-15.817-14.758-15.817h-9.006
		V388.615z"/>
</g>
<g>
</g>
<g>
</g>
<g>
</g>
<g>
</g>
<g>
</g>
<g>
</g>
<g>
</g>
<g>
</g>
<g>
</g>
<g>
</g>
<g>
</g>
<g>
</g>
<g>
</g>
<g>
</g>
<g>
</g>
</svg>
