<?xml version="1.0" encoding="iso-8859-1"?>
<!-- Generator: Adobe Illustrator 19.0.0, SVG Export Plug-In . SVG Version: 6.00 Build 0)  -->
<svg version="1.1" id="Layer_1" xmlns="http://www.w3.org/2000/svg" xmlns:xlink="http://www.w3.org/1999/xlink" x="0px" y="0px"
	 viewBox="0 0 512 512" style="enable-background:new 0 0 512 512;" xml:space="preserve">
<path style="fill:#6A5CAF;" d="M511.344,274.266C511.77,268.231,512,262.143,512,256C512,114.615,397.385,0,256,0S0,114.615,0,256
	c0,117.769,79.53,216.949,187.809,246.801L511.344,274.266z"/>
<path style="fill:#423299;" d="M511.344,274.266L314.991,77.913L119.096,434.087l68.714,68.714C209.522,508.787,232.385,512,256,512
	C391.243,512,501.976,407.125,511.344,274.266z"/>
<polygon style="fill:#FFFFFF;" points="278.328,333.913 255.711,77.913 119.096,77.913 119.096,311.652 "/>
<polygon style="fill:#E8E6E6;" points="392.904,311.652 392.904,155.826 337.252,133.565 314.991,77.913 255.711,77.913 
	256.067,333.913 "/>
<polygon style="fill:#FFFFFF;" points="314.991,155.826 314.991,77.913 392.904,155.826 "/>
<rect x="119.096" y="311.652" style="fill:#9187C5;" width="273.809" height="122.435"/>
<g>
	<path style="fill:#FFFFFF;" d="M210.094,384.453h-0.378h-10.217v14.909h-13.471v-52.975h23.688
		c14.001,0,22.023,6.658,22.023,18.465c0,8.097-3.406,13.925-9.611,17.028l11.125,17.481h-15.287L210.094,384.453z M209.715,373.859
		c5.827,0,9.233-2.952,9.233-8.553c0-5.525-3.406-8.324-9.233-8.324h-10.217v16.877H209.715z"/>
	<path style="fill:#FFFFFF;" d="M267.237,357.209v42.153h-13.471v-42.153H237.95v-10.898h45.256v10.898H267.237z"/>
	<path style="fill:#FFFFFF;" d="M304.324,356.982v12.26h23.763v10.596h-23.763v19.525h-13.471v-52.975h39.277v10.595h-25.806
		V356.982z"/>
</g>
<g>
</g>
<g>
</g>
<g>
</g>
<g>
</g>
<g>
</g>
<g>
</g>
<g>
</g>
<g>
</g>
<g>
</g>
<g>
</g>
<g>
</g>
<g>
</g>
<g>
</g>
<g>
</g>
<g>
</g>
</svg>
